<svg width="220" height="160" viewBox="0 0 220 160" xmlns="http://www.w3.org/2000/svg">
  <!-- 绿色鲈鱼 -->
  <defs>
    <linearGradient id="greenGradient" x1="0%" y1="0%" x2="100%" y2="100%">
      <stop offset="0%" style="stop-color:#22C55E;stop-opacity:1" />
      <stop offset="50%" style="stop-color:#16A34A;stop-opacity:1" />
      <stop offset="100%" style="stop-color:#15803D;stop-opacity:1" />
    </linearGradient>
  </defs>
  
  <!-- 鱼身 -->
  <ellipse cx="110" cy="80" rx="70" ry="45" fill="url(#greenGradient)" stroke="#166534" stroke-width="2"/>
  
  <!-- 鱼尾 -->
  <path d="M 40 80 L 5 55 L 10 80 L 5 105 Z" fill="url(#greenGradient)" stroke="#166534" stroke-width="2"/>
  
  <!-- 背鳍 -->
  <path d="M 80 35 L 100 15 L 120 20 L 140 25 L 130 50 Z" fill="url(#greenGradient)" stroke="#166534" stroke-width="2"/>
  
  <!-- 腹鳍 -->
  <path d="M 80 125 L 100 145 L 120 140 L 140 135 L 130 110 Z" fill="url(#greenGradient)" stroke="#166534" stroke-width="2"/>
  
  <!-- 侧鳍 -->
  <ellipse cx="130" cy="100" rx="20" ry="10" fill="url(#greenGradient)" stroke="#166534" stroke-width="1"/>
  
  <!-- 鳞片纹理 -->
  <circle cx="90" cy="70" r="8" fill="none" stroke="#059669" stroke-width="1" opacity="0.6"/>
  <circle cx="110" cy="65" r="8" fill="none" stroke="#059669" stroke-width="1" opacity="0.6"/>
  <circle cx="130" cy="70" r="8" fill="none" stroke="#059669" stroke-width="1" opacity="0.6"/>
  <circle cx="90" cy="90" r="8" fill="none" stroke="#059669" stroke-width="1" opacity="0.6"/>
  <circle cx="110" cy="95" r="8" fill="none" stroke="#059669" stroke-width="1" opacity="0.6"/>
  <circle cx="130" cy="90" r="8" fill="none" stroke="#059669" stroke-width="1" opacity="0.6"/>
  
  <!-- 眼睛 -->
  <circle cx="150" cy="65" r="12" fill="white" stroke="#333" stroke-width="1"/>
  <circle cx="153" cy="65" r="8" fill="black"/>
  <circle cx="155" cy="62" r="3" fill="white"/>
  
  <!-- 嘴巴 -->
  <ellipse cx="175" cy="80" rx="10" ry="5" fill="#166534" stroke="#14532D" stroke-width="1"/>
</svg>