<svg width="250" height="180" viewBox="0 0 250 180" xmlns="http://www.w3.org/2000/svg">
  <!-- 金色大鱼 -->
  <defs>
    <linearGradient id="goldGradient" x1="0%" y1="0%" x2="100%" y2="100%">
      <stop offset="0%" style="stop-color:#FCD34D;stop-opacity:1" />
      <stop offset="50%" style="stop-color:#F59E0B;stop-opacity:1" />
      <stop offset="100%" style="stop-color:#D97706;stop-opacity:1" />
    </linearGradient>
    <radialGradient id="goldShine" cx="50%" cy="30%" r="50%">
      <stop offset="0%" style="stop-color:#FEF3C7;stop-opacity:0.8" />
      <stop offset="100%" style="stop-color:#F59E0B;stop-opacity:0.2" />
    </radialGradient>
  </defs>
  
  <!-- 鱼身 -->
  <ellipse cx="125" cy="90" rx="80" ry="50" fill="url(#goldGradient)" stroke="#92400E" stroke-width="3"/>
  <ellipse cx="125" cy="90" rx="75" ry="45" fill="url(#goldShine)" opacity="0.6"/>
  
  <!-- 鱼尾 -->
  <path d="M 45 90 L 5 65 L 15 90 L 5 115 Z" fill="url(#goldGradient)" stroke="#92400E" stroke-width="3"/>
  
  <!-- 背鳍 -->
  <path d="M 90 40 L 110 20 L 130 25 L 150 30 L 160 40 L 150 65 Z" fill="url(#goldGradient)" stroke="#92400E" stroke-width="2"/>
  
  <!-- 腹鳍 -->
  <path d="M 90 140 L 110 160 L 130 155 L 150 150 L 160 140 L 150 115 Z" fill="url(#goldGradient)" stroke="#92400E" stroke-width="2"/>
  
  <!-- 侧鳍 -->
  <ellipse cx="150" cy="110" rx="25" ry="12" fill="url(#goldGradient)" stroke="#92400E" stroke-width="2"/>
  
  <!-- 鳞片装饰 -->
  <circle cx="100" cy="75" r="10" fill="none" stroke="#FBBF24" stroke-width="2" opacity="0.7"/>
  <circle cx="125" cy="70" r="10" fill="none" stroke="#FBBF24" stroke-width="2" opacity="0.7"/>
  <circle cx="150" cy="75" r="10" fill="none" stroke="#FBBF24" stroke-width="2" opacity="0.7"/>
  <circle cx="100" cy="105" r="10" fill="none" stroke="#FBBF24" stroke-width="2" opacity="0.7"/>
  <circle cx="125" cy="110" r="10" fill="none" stroke="#FBBF24" stroke-width="2" opacity="0.7"/>
  <circle cx="150" cy="105" r="10" fill="none" stroke="#FBBF24" stroke-width="2" opacity="0.7"/>
  
  <!-- 眼睛 -->
  <circle cx="175" cy="75" r="15" fill="white" stroke="#333" stroke-width="2"/>
  <circle cx="180" cy="75" r="10" fill="black"/>
  <circle cx="183" cy="71" r="4" fill="white"/>
  
  <!-- 嘴巴 -->
  <ellipse cx="205" cy="90" rx="12" ry="6" fill="#92400E" stroke="#78350F" stroke-width="2"/>
  
  <!-- 金色光泽点 -->
  <circle cx="110" cy="60" r="3" fill="#FEF3C7" opacity="0.8"/>
  <circle cx="140" cy="55" r="4" fill="#FEF3C7" opacity="0.8"/>
  <circle cx="160" cy="65" r="2" fill="#FEF3C7" opacity="0.8"/>
</svg>