<svg width="180" height="140" viewBox="0 0 180 140" xmlns="http://www.w3.org/2000/svg">
  <!-- 蓝色热带鱼 -->
  <defs>
    <linearGradient id="blueGradient" x1="0%" y1="0%" x2="100%" y2="100%">
      <stop offset="0%" style="stop-color:#4A90E2;stop-opacity:1" />
      <stop offset="50%" style="stop-color:#7BB3F0;stop-opacity:1" />
      <stop offset="100%" style="stop-color:#2E5BBA;stop-opacity:1" />
    </linearGradient>
  </defs>
  
  <!-- 鱼身 -->
  <ellipse cx="90" cy="70" rx="50" ry="40" fill="url(#blueGradient)" stroke="#1E3A8A" stroke-width="2"/>
  
  <!-- 鱼尾 -->
  <path d="M 40 70 L 5 45 L 15 70 L 5 95 Z" fill="url(#blueGradient)" stroke="#1E3A8A" stroke-width="2"/>
  
  <!-- 背鳍 -->
  <path d="M 70 30 L 90 10 L 110 20 L 100 40 Z" fill="url(#blueGradient)" stroke="#1E3A8A" stroke-width="2"/>
  
  <!-- 腹鳍 -->
  <path d="M 70 110 L 90 130 L 110 120 L 100 100 Z" fill="url(#blueGradient)" stroke="#1E3A8A" stroke-width="2"/>
  
  <!-- 侧鳍 -->
  <ellipse cx="110" cy="85" rx="15" ry="8" fill="url(#blueGradient)" stroke="#1E3A8A" stroke-width="1"/>
  
  <!-- 黄色条纹 -->
  <path d="M 60 50 Q 80 45 100 50 Q 120 55 140 50" stroke="#FFD700" stroke-width="4" fill="none"/>
  <path d="M 60 70 Q 80 65 100 70 Q 120 75 140 70" stroke="#FFD700" stroke-width="4" fill="none"/>
  <path d="M 60 90 Q 80 85 100 90 Q 120 95 140 90" stroke="#FFD700" stroke-width="4" fill="none"/>
  
  <!-- 眼睛 -->
  <circle cx="125" cy="60" r="10" fill="white" stroke="#333" stroke-width="1"/>
  <circle cx="128" cy="60" r="7" fill="black"/>
  <circle cx="130" cy="57" r="2" fill="white"/>
  
  <!-- 嘴巴 -->
  <ellipse cx="145" cy="70" rx="6" ry="3" fill="#1E3A8A" stroke="#0F172A" stroke-width="1"/>
</svg>